<svg xmlns="http://www.w3.org/2000/svg" width="104" height="93" fill="none"><path stroke="#344054" stroke-linecap="round" stroke-linejoin="round" stroke-width="2.08" d="M60.667 27.124H49.833c-1.724 0-3.378.613-4.597 1.703-1.218 1.09-1.903 2.568-1.903 4.11 0 1.541.684 3.02 1.903 4.11 1.22 1.09 2.873 1.702 4.597 1.702h4.334c1.724 0 3.378.613 4.597 1.703 1.218 1.09 1.903 2.568 1.903 4.11 0 .763-.168 1.519-.494 2.224a5.817 5.817 0 0 1-1.41 1.886c-.603.54-1.32.968-2.108 1.26a7.173 7.173 0 0 1-2.488.442H43.333m8.667 0v3.877m0-31.001v3.874"/><path stroke="#0297D4" stroke-linecap="round" stroke-linejoin="round" stroke-width="2.08" d="M26 81.375h52m8.667-69.75H17.333C14.94 11.625 13 13.36 13 15.499V62c0 2.14 1.94 3.877 4.333 3.877h69.334c2.392 0 4.333-1.736 4.333-3.877V15.5c0-2.139-1.94-3.874-4.333-3.874Z"/></svg>