<svg xmlns="http://www.w3.org/2000/svg" width="0" height="0" class="hidden">
  <symbol viewBox="0 0 24 24" id="call">
    <path fill="currentColor" d="M7.77204 2.43905L8.84904 2.09505C9.85704 1.77305 10.935 2.29405 11.367 3.31205L12.227 5.34005C12.602 6.22305 12.394 7.26205 11.713 7.90805L9.82004 9.70605C9.93671 10.7821 10.298 11.8411 10.904 12.8831C11.4803 13.8909 12.2525 14.7732 13.175 15.4781L15.451 14.7181C16.313 14.4311 17.252 14.7621 17.781 15.5391L19.013 17.3491C19.629 18.2531 19.518 19.4991 18.755 20.2651L17.937 21.0861C17.123 21.9031 15.961 22.2001 14.885 21.8641C12.3464 21.0721 10.012 18.7211 7.88204 14.8111C5.74937 10.8944 4.99671 7.57172 5.62404 4.84305C5.88804 3.69505 6.70604 2.78005 7.77404 2.43905"/>
  </symbol>
  <symbol viewBox="0 0 24 24" id="phone">
    <path fill="currentColor" d="M20.7072 14.7035C20.592 13.9031 19.974 13.2791 19.1784 13.0931C16.086 12.3683 15.3108 10.5875 15.18 8.6123C14.6316 8.5103 13.656 8.3999 12 8.3999C10.344 8.3999 9.36843 8.5103 8.82003 8.6123C8.68923 10.5875 7.91403 12.3683 4.82163 13.0931C4.02603 13.2803 3.40803 13.9031 3.29283 14.7035L2.69643 18.8339C2.48643 20.2883 3.55443 21.5999 5.04003 21.5999H18.96C20.4444 21.5999 21.5136 20.2883 21.3036 18.8339L20.7072 14.7035ZM12 18.5903C10.326 18.5903 8.96883 17.2463 8.96883 15.5903C8.96883 13.9343 10.326 12.5903 12 12.5903C13.674 12.5903 15.0312 13.9343 15.0312 15.5903C15.0312 17.2463 13.6728 18.5903 12 18.5903ZM23.94 7.1999C23.9112 5.3999 19.3296 2.4011 12 2.3999C4.66923 2.4011 0.0876344 5.3999 0.0600344 7.1999C0.0324344 8.9999 0.0852345 11.3423 3.10203 10.9523C6.63123 10.4951 6.41403 9.2627 6.41403 7.5011C6.41403 6.2723 9.28443 5.9759 12 5.9759C14.7156 5.9759 17.5848 6.2723 17.586 7.5011C17.586 9.2627 17.3688 10.4951 20.898 10.9523C23.9136 11.3423 23.9676 8.9999 23.94 7.1999Z"/>
  </symbol>
  <symbol viewBox="0 0 24 25" id="place">
    <path fill="currentColor" fill-rule="evenodd" clip-rule="evenodd" d="M11.262 22.634C11.262 22.634 4 16.518 4 10.5C4 8.37827 4.84285 6.34344 6.34315 4.84315C7.84344 3.34285 9.87827 2.5 12 2.5C14.1217 2.5 16.1566 3.34285 17.6569 4.84315C19.1571 6.34344 20 8.37827 20 10.5C20 16.518 12.738 22.634 12.738 22.634C12.334 23.006 11.669 23.002 11.262 22.634ZM12 14C12.4596 14 12.9148 13.9095 13.3394 13.7336C13.764 13.5577 14.1499 13.2999 14.4749 12.9749C14.7999 12.6499 15.0577 12.264 15.2336 11.8394C15.4095 11.4148 15.5 10.9596 15.5 10.5C15.5 10.0404 15.4095 9.58525 15.2336 9.16061C15.0577 8.73597 14.7999 8.35013 14.4749 8.02513C14.1499 7.70012 13.764 7.44231 13.3394 7.26642C12.9148 7.09053 12.4596 7 12 7C11.0717 7 10.1815 7.36875 9.52513 8.02513C8.86875 8.6815 8.5 9.57174 8.5 10.5C8.5 11.4283 8.86875 12.3185 9.52513 12.9749C10.1815 13.6313 11.0717 14 12 14Z"/>
  </symbol>
  <symbol viewBox="0 0 14.41 26" id="angle-r">
    <path fill="currentColor" d="M7.71.29A1,1,0,0,0,6.29,1.71L17.59,13,6.29,24.29a1,1,0,0,0,0,1.42,1,1,0,0,0,1.42,0L20.41,13Z" transform="translate(-6)"/>
  </symbol>
  <symbol viewBox="0 0 14.73 26" id="arrow-up">
    <path fill="currentColor" d="M14.44 6.66 8.07.29a1 1 0 0 0-1.41 0L.29 6.66a1 1 0 0 0 0 1.41 1 1 0 0 0 1.42 0l4.65-4.66V25a1 1 0 1 0 2 0V3.41L13 8.07a1 1 0 0 0 1.42 0 1 1 0 0 0 .02-1.41Z"/>
  </symbol>
  <symbol viewBox="0 0 15 12" id="burger">
    <path fill="currentColor" fill-rule="evenodd" d="M1 0h13a1 1 0 1 1 0 2H1a1 1 0 0 1 0-2zm0 5h13a1 1 0 0 1 0 2H1a1 1 0 1 1 0-2zm0 5h13a1 1 0 0 1 0 2H1a1 1 0 1 1 0-2z"/>
  </symbol>
  <symbol viewBox="0 0 20.67 21.45" id="close">
    <path fill="currentColor" d="M12.57,10.72l7.65-8A1.62,1.62,0,0,0,17.88.5L10.33,8.39,2.78.5A1.61,1.61,0,0,0,.45,2.73l7.65,8-7.65,8A1.61,1.61,0,0,0,.5,21,1.61,1.61,0,0,0,2.78,21l7.55-7.89L17.88,21a1.64,1.64,0,0,0,1.17.5,1.62,1.62,0,0,0,1.17-2.74Z"/>
  </symbol>
</svg>
